<?xml version="1.0" encoding="utf-8"?>
<!-- Generator: Adobe Illustrator 23.0.1, SVG Export Plug-In . SVG Version: 6.00 Build 0)  -->
<svg version="1.1" id="Layer_1" xmlns="http://www.w3.org/2000/svg" xmlns:xlink="http://www.w3.org/1999/xlink" x="0px" y="0px"
	 viewBox="0 0 920 180" style="enable-background:new 0 0 920 180;" xml:space="preserve">
<style type="text/css">
	.st0{fill:#F5F0E6;}
	.st1{fill:#151515;}
</style>
<g>
	<path class="st0" d="M888.31,64.48V47.19h1.05l4.44,17.29h7.19l4.44-17.29h1.11l-0.06,17.29h4.21V43.45h-8.3l-4.5,17.41h-1.05
		l-4.5-17.41h-7.94v21.03H888.31z M873.7,64.48V47.07h6.72v-3.62h-17.64v3.62h6.72v17.41H873.7z M855.77,141.59v-0.79
		c-4.34-4.73-7.89-10.52-7.89-24.97V73.77h13.14V62.73h-13.41V43.01h-13.67v19.72h-11.04v11.04h10.78v44.3
		c0,13.41,2.5,18.8,6.44,23.53H855.77z M793.47,141.59v-41.01c0-17.35,5.78-25.24,21.56-25.24h3.94V61.94h-2.63
		c-15.77,0-19.72,7.62-21.29,14.2h-3.15V62.73h-12.62v78.86H793.47z M725.12,131.73c-12.75,0-19.85-10.78-19.85-29.57
		s7.1-29.57,19.85-29.57c13.14,0,21.42,11.83,21.42,29.57S738.26,131.73,725.12,131.73 M722.62,143.56
		c12.09,0,19.19-5.91,21.95-12.22h3.15v10.25h12.62V62.73h-12.62v10.25h-3.15c-2.76-6.31-9.86-12.22-21.69-12.22
		c-20.64,0-32.07,16.3-32.07,41.4C690.81,127.39,702.38,143.56,722.62,143.56 M651.52,143.56c18.27,0,29.71-10.52,32.6-29.57h-13.8
		c-1.58,11.17-7.75,18.01-18.4,18.01c-13.8,0-20.24-11.44-20.24-29.84s6.44-29.84,20.24-29.84c10.65,0,16.82,6.83,18.4,18.01h13.8
		c-2.5-18.93-14.2-29.57-32.6-29.57c-22.48,0-34.31,16.17-34.31,41.4C617.21,127.13,628.78,143.56,651.52,143.56 M556.36,94.67
		c1.45-13.8,8.02-21.16,19.06-21.16c10.78,0,16.96,7.49,17.61,21.16H556.36z M575.81,143.56c20.5,0,30.76-11.96,33.65-27.21h-16.82
		c-2.1,8.28-7.62,14.06-16.82,14.06c-12.09,0-18.66-9.6-19.58-23.92h54.15v-4.34c0-27.08-12.36-41.4-34.83-41.4
		c-23.79,0-36.54,16.17-36.54,41.27C539.01,127.26,551.76,143.56,575.81,143.56 M478.54,141.59V99c0-13.28,6.7-23.53,18.27-23.53
		c9.46,0,13.67,6.83,13.67,19.06v47.06h17.74V91.25c0-18.27-8.41-30.49-26.16-30.49c-10.52,0-16.69,4.6-20.37,11.83h-3.15V36.44
		H460.8v105.15H478.54z M445.29,141.59v-0.79c-4.34-4.73-7.89-10.78-7.89-24.97V75.74h12.88V62.73h-13.01V43.01h-17.35v19.72h-11.04
		v13.01h10.78v42.32c0,13.28,2.5,18.8,6.57,23.53H445.29z M350.13,141.59V99c0-12.62,6.18-22.21,17.09-22.21
		c9.07,0,13.01,6.44,13.01,18.01v46.79h19.58V91.38c0-18.66-8.67-30.63-26.29-30.63c-12.49,0-18.8,5.65-21.82,13.8h-3.15V62.73
		h-18.01v78.86H350.13z M293.75,141.59v-38.64c0-15.64,6.18-23.26,21.29-23.26h5.39V61.94h-3.81c-15.25,0-19.98,7.36-21.56,14.98
		h-3.15v-14.2h-17.74v78.86H293.75z M215.28,143.56c12.36,0,19.32-5.65,21.95-13.8h3.15v11.83H258V62.73h-19.58v42.59
		c0,12.49-6.18,22.21-17.22,22.21c-8.94,0-12.88-6.57-12.88-18.01V62.73h-19.58v50.21C188.73,131.47,197.4,143.56,215.28,143.56
		 M174.8,141.59v-0.79c-4.47-4.73-8.02-10.91-8.02-24.97V76.66h12.88V62.73h-13.01V43.01h-19.06v19.72h-11.04v13.93h10.78v41.4
		c0,13.28,2.5,18.8,6.57,23.53H174.8z M78.98,93.75c1.31-12.62,7.49-18.8,17.09-18.8c9.86,0,14.98,6.83,15.77,18.8H78.98z
		 M96.46,143.56c22.08,0,32.73-12.75,35.09-27.21h-20.24c-1.58,6.57-6.57,12.22-14.85,12.22c-10.38,0-16.56-8.15-17.48-21.42h53.63
		v-4.47c0-27.47-13.01-41.93-36.41-41.93c-24.58,0-37.99,15.64-37.99,41.27S71.49,143.56,96.46,143.56 M30.61,141.59v-37.85
		c0-14.98,6.31-22.61,21.29-22.61h5.78V61.94h-4.21c-14.98,0-19.98,7.36-21.56,15.25h-3.15V62.73H9.32v78.86H30.61z"/>
</g>
</svg>
